<svg xmlns="http://www.w3.org/2000/svg" version="1.1" xmlns:xlink="http://www.w3.org/1999/xlink" width="1000" height="1000"><g clip-path="url(#SvgjsClipPath1214)"><rect width="1000" height="1000" fill="#000000"></rect><g transform="matrix(9.278350515463918,0,0,9.278350515463918,49.99999999999994,351.5463917525773)"><svg xmlns="http://www.w3.org/2000/svg" version="1.1" xmlns:xlink="http://www.w3.org/1999/xlink" width="97" height="32"><svg width="97" height="32" viewBox="0 0 97 32" fill="none" xmlns="http://www.w3.org/2000/svg">
<path d="M5.43627 13.5C4.47627 13.5 3.60927 13.332 2.83527 12.996C2.06727 12.654 1.43427 12.168 0.936274 11.538C0.444274 10.902 0.132273 10.146 0.000273488 9.27001L2.55627 8.89201C2.73627 9.63601 3.10827 10.209 3.67227 10.611C4.23627 11.013 4.87827 11.214 5.59827 11.214C6.00027 11.214 6.39027 11.151 6.76827 11.025C7.14627 10.899 7.45527 10.713 7.69527 10.467C7.94127 10.221 8.06427 9.91801 8.06427 9.55801C8.06427 9.42601 8.04327 9.30001 8.00127 9.18001C7.96527 9.05401 7.90227 8.93701 7.81227 8.82901C7.72227 8.72101 7.59327 8.61901 7.42527 8.52301C7.26327 8.42701 7.05627 8.34001 6.80427 8.26201L3.43827 7.27201C3.18627 7.20001 2.89227 7.09801 2.55627 6.96601C2.22627 6.83401 1.90527 6.64501 1.59327 6.39901C1.28127 6.15301 1.02027 5.82901 0.810273 5.42701C0.606273 5.01901 0.504274 4.50601 0.504274 3.88801C0.504274 3.01801 0.723274 2.29501 1.16127 1.71901C1.59927 1.14301 2.18427 0.71401 2.91627 0.432011C3.64827 0.15001 4.45827 0.0120102 5.34627 0.0180105C6.24027 0.0300103 7.03827 0.18301 7.74027 0.47701C8.44227 0.771011 9.03027 1.20001 9.50427 1.76401C9.97827 2.32201 10.3203 3.00601 10.5303 3.81601L7.88427 4.26601C7.78827 3.84601 7.61127 3.49201 7.35327 3.20401C7.09527 2.91601 6.78627 2.69701 6.42627 2.54701C6.07227 2.39701 5.70027 2.31601 5.31027 2.30401C4.92627 2.29201 4.56327 2.34601 4.22127 2.46601C3.88527 2.58001 3.60927 2.74801 3.39327 2.97001C3.18327 3.19201 3.07827 3.45601 3.07827 3.76201C3.07827 4.04401 3.16527 4.27501 3.33927 4.45501C3.51327 4.62901 3.73227 4.77001 3.99627 4.87801C4.26027 4.98601 4.53027 5.07601 4.80627 5.14801L7.05627 5.76001C7.39227 5.85001 7.76427 5.97001 8.17227 6.12001C8.58027 6.26401 8.97027 6.46801 9.34227 6.73201C9.72027 6.99001 10.0293 7.33201 10.2693 7.75801C10.5153 8.18401 10.6383 8.72401 10.6383 9.37801C10.6383 10.074 10.4913 10.683 10.1973 11.205C9.90927 11.721 9.51927 12.15 9.02727 12.492C8.53527 12.828 7.97727 13.08 7.35327 13.248C6.73527 13.416 6.09627 13.5 5.43627 13.5ZM12.2564 13.23V0.27001H14.7044V13.23H12.2564ZM16.8626 13.23V0.27001H19.3466L24.9806 8.91001V0.27001H27.4646V13.23H24.9806L19.3466 4.59001V13.23H16.8626ZM32.6039 13.23V7.95601L28.1759 0.27001H31.0379L33.8459 5.14801L36.6539 0.27001H39.5159L35.0879 7.95601V13.23H32.6039ZM45.5078 13.5C44.4638 13.5 43.5458 13.29 42.7538 12.87C41.9618 12.444 41.3438 11.847 40.8998 11.079C40.4558 10.311 40.2338 9.40801 40.2338 8.37001V0.28801L42.7178 0.27001V8.35201C42.7178 8.77801 42.7898 9.16501 42.9338 9.51301C43.0778 9.86101 43.2758 10.161 43.5278 10.413C43.7858 10.665 44.0828 10.86 44.4188 10.998C44.7608 11.13 45.1238 11.196 45.5078 11.196C45.9038 11.196 46.2698 11.127 46.6058 10.989C46.9478 10.851 47.2448 10.656 47.4968 10.404C47.7488 10.152 47.9438 9.85201 48.0818 9.50401C48.2258 9.15601 48.2978 8.77201 48.2978 8.35201V0.27001H50.7818V8.37001C50.7818 9.40801 50.5598 10.311 50.1158 11.079C49.6718 11.847 49.0538 12.444 48.2618 12.87C47.4698 13.29 46.5518 13.5 45.5078 13.5ZM52.7543 13.23V0.27001H55.2023V6.24601L60.1343 0.27001H63.1223L57.7043 6.66001L63.4643 13.23H60.3683L55.2023 7.32601V13.23H52.7543ZM69.0263 13.5C67.7303 13.5 66.6113 13.218 65.6693 12.654C64.7333 12.09 64.0103 11.301 63.5003 10.287C62.9963 9.27301 62.7443 8.09401 62.7443 6.75001C62.7443 5.40601 62.9963 4.22701 63.5003 3.21301C64.0103 2.19901 64.7333 1.41001 65.6693 0.846011C66.6113 0.282011 67.7303 1.07288e-05 69.0263 1.07288e-05C70.3223 1.07288e-05 71.4383 0.282011 72.3743 0.846011C73.3163 1.41001 74.0393 2.19901 74.5433 3.21301C75.0533 4.22701 75.3083 5.40601 75.3083 6.75001C75.3083 8.09401 75.0533 9.27301 74.5433 10.287C74.0393 11.301 73.3163 12.09 72.3743 12.654C71.4383 13.218 70.3223 13.5 69.0263 13.5ZM69.0263 11.196C69.8483 11.208 70.5323 11.031 71.0783 10.665C71.6243 10.299 72.0323 9.78001 72.3023 9.10801C72.5783 8.43601 72.7163 7.65001 72.7163 6.75001C72.7163 5.85001 72.5783 5.07001 72.3023 4.41001C72.0323 3.75001 71.6243 3.23701 71.0783 2.87101C70.5323 2.50501 69.8483 2.31601 69.0263 2.30401C68.2043 2.29201 67.5203 2.46901 66.9743 2.83501C66.4283 3.20101 66.0173 3.72001 65.7413 4.39201C65.4713 5.06401 65.3363 5.85001 65.3363 6.75001C65.3363 7.65001 65.4713 8.43001 65.7413 9.09001C66.0173 9.75001 66.4283 10.263 66.9743 10.629C67.5203 10.995 68.2043 11.184 69.0263 11.196ZM78.81 13.23L74.85 0.27001H77.37L80.61 10.926L83.904 0.27001H86.424L82.464 13.23H78.81ZM85.0742 13.23L89.0342 0.27001H92.6882L96.6482 13.23H94.1282L90.6002 1.80001H91.0682L87.5942 13.23H85.0742ZM87.4502 10.53V8.24401H94.2902V10.53H87.4502ZM0.540273 31.23V18.27H2.98827V24.246L7.92027 18.27H10.9083L5.49027 24.66L11.2503 31.23H8.15427L2.98827 25.326V31.23H0.540273ZM11.071 31.23L15.031 18.27H18.685L22.645 31.23H20.125L16.597 19.8H17.065L13.591 31.23H11.071ZM13.447 28.53V26.244H20.287V28.53H13.447ZM23.7181 31.23V18.27H29.1901C29.3161 18.27 29.4841 18.276 29.6941 18.288C29.9101 18.294 30.1021 18.312 30.2701 18.342C31.0441 18.462 31.6771 18.717 32.1691 19.107C32.6671 19.497 33.0331 19.989 33.2671 20.583C33.5011 21.171 33.6181 21.828 33.6181 22.554C33.6181 23.64 33.3481 24.57 32.8081 25.344C32.2681 26.112 31.4221 26.586 30.2701 26.766L29.1901 26.838H26.1661V31.23H23.7181ZM31.0261 31.23L28.4701 25.956L30.9901 25.47L33.7981 31.23H31.0261ZM26.1661 24.552H29.0821C29.2081 24.552 29.3461 24.546 29.4961 24.534C29.6461 24.522 29.7841 24.498 29.9101 24.462C30.2401 24.372 30.4951 24.222 30.6751 24.012C30.8551 23.796 30.9781 23.559 31.0441 23.301C31.1161 23.037 31.1521 22.788 31.1521 22.554C31.1521 22.32 31.1161 22.074 31.0441 21.816C30.9781 21.552 30.8551 21.315 30.6751 21.105C30.4951 20.889 30.2401 20.736 29.9101 20.646C29.7841 20.61 29.6461 20.586 29.4961 20.574C29.3461 20.562 29.2081 20.556 29.0821 20.556H26.1661V24.552ZM35.4167 31.23V18.27H37.8647V31.23H35.4167ZM40.0229 31.23V18.27H42.5069L48.1409 26.91V18.27H50.6249V31.23H48.1409L42.5069 22.59V31.23H40.0229ZM51.6961 31.23L55.6561 18.27H59.3101L63.2701 31.23H60.7501L57.2221 19.8H57.6901L54.2161 31.23H51.6961ZM54.0721 28.53V26.244H60.9121V28.53H54.0721Z" fill="white"></path>
</svg></svg></g></g><defs><clipPath id="SvgjsClipPath1214"><rect width="1000" height="1000" x="0" y="0" rx="350" ry="350"></rect></clipPath></defs></svg>