<svg width="29" height="29" viewBox="0 0 29 29" fill="none" xmlns="http://www.w3.org/2000/svg">
<g filter="url(#filter0_i_1_671)">
<path d="M14.5 0C22.5081 0 29 6.49187 29 14.5C29 22.5081 22.5081 29 14.5 29C6.49187 29 0 22.5081 0 14.5C2.57703e-07 6.49187 6.49187 2.5772e-07 14.5 0ZM14.499 6.7666C12.4003 6.76661 12.1362 6.77595 11.3115 6.81348C10.4885 6.8512 9.9262 6.98165 9.43457 7.17285C8.9262 7.37033 8.4951 7.63467 8.06543 8.06445C7.63526 8.4943 7.37102 8.9261 7.17285 9.43457C6.98117 9.9264 6.85053 10.4887 6.81348 11.3115C6.77659 12.1361 6.7666 12.4001 6.7666 14.5C6.7666 16.6003 6.7761 16.8636 6.81348 17.6885C6.85137 18.5115 6.98181 19.0738 7.17285 19.5654C7.37048 20.0738 7.63472 20.5049 8.06445 20.9346C8.494 21.3646 8.9255 21.6296 9.43359 21.8271C9.92563 22.0184 10.4884 22.1488 11.3115 22.1865C12.1363 22.2241 12.4 22.2334 14.5 22.2334C16.5999 22.2334 16.8629 22.224 17.6875 22.1865C18.5107 22.1488 19.0734 22.0183 19.5654 21.8271C20.0739 21.6296 20.5049 21.3647 20.9346 20.9346C21.3646 20.5048 21.629 20.0737 21.8271 19.5654C22.0172 19.0736 22.1478 18.5113 22.1865 17.6885C22.2236 16.8636 22.2334 16.6003 22.2334 14.5C22.2334 12.4 22.2236 12.1363 22.1865 11.3115C22.1479 10.4883 22.0172 9.92626 21.8271 9.43457C21.629 8.92594 21.3647 8.4943 20.9346 8.06445C20.5045 7.63438 20.0744 7.37019 19.5654 7.17285C19.0724 6.98161 18.5098 6.85118 17.6865 6.81348C16.8619 6.77595 16.5991 6.7666 14.499 6.7666Z" fill="white"/>
<path d="M13.8076 8.16034C14.0134 8.16002 14.2431 8.16034 14.501 8.16034C16.5657 8.16034 16.8106 8.16821 17.626 8.20526C18.3797 8.23974 18.7889 8.36506 19.0615 8.47089C19.4224 8.61105 19.6797 8.77932 19.9502 9.04999C20.2208 9.32058 20.3888 9.57788 20.5293 9.93866C20.6351 10.2109 20.7616 10.6203 20.7959 11.3742C20.833 12.1894 20.8408 12.4345 20.8408 14.4982C20.8408 16.562 20.833 16.8071 20.7959 17.6223C20.7614 18.3762 20.6351 18.7855 20.5293 19.0578C20.3891 19.4187 20.2209 19.676 19.9502 19.9465C19.6796 20.217 19.4225 20.3845 19.0615 20.5246C18.7893 20.6309 18.3798 20.7567 17.626 20.7912C16.8108 20.8283 16.5657 20.8361 14.501 20.8361C12.436 20.8361 12.1912 20.8283 11.376 20.7912C10.6224 20.7564 10.2132 20.6304 9.94043 20.5246C9.57966 20.3845 9.32135 20.217 9.05078 19.9465C8.78011 19.6758 8.61217 19.4179 8.47168 19.0568C8.36586 18.7845 8.24036 18.3749 8.20605 17.6213C8.16901 16.8063 8.16113 16.5611 8.16113 14.4963C8.16113 12.4312 8.169 12.1875 8.20605 11.3723C8.24054 10.6185 8.36585 10.2093 8.47168 9.93671C8.61185 9.57581 8.78011 9.31773 9.05078 9.04706C9.32139 8.77649 9.57961 8.60939 9.94043 8.46893C10.213 8.36262 10.6222 8.23696 11.376 8.20233C12.0894 8.17011 12.3663 8.16 13.8076 8.15839V8.16034ZM14.501 10.5285C12.3077 10.5285 10.5293 12.307 10.5293 14.5002C10.5293 16.6934 12.3078 18.4709 14.501 18.4709C16.6942 18.4709 18.4716 16.6934 18.4717 14.5002C18.4717 12.307 16.6941 10.5286 14.501 10.5285ZM18.6289 9.44452C18.1166 9.44454 17.7012 9.85977 17.7012 10.3723C17.7013 10.8845 18.1166 11.3 18.6289 11.3C19.1412 11.3 19.5565 10.8845 19.5566 10.3723C19.5566 9.85991 19.1412 9.44452 18.6289 9.44452Z" fill="white"/>
<path d="M14.5007 11.9223C15.9242 11.9223 17.0785 13.0764 17.0785 14.5001C17.0785 15.9237 15.9242 17.0779 14.5007 17.0779C13.0769 17.0779 11.9229 15.9237 11.9229 14.5001C11.9229 13.0764 13.0769 11.9223 14.5007 11.9223Z" fill="white"/>
</g>
<defs>
<filter id="filter0_i_1_671" x="0" y="0" width="29" height="29" filterUnits="userSpaceOnUse" color-interpolation-filters="sRGB">
<feFlood flood-opacity="0" result="BackgroundImageFix"/>
<feBlend mode="normal" in="SourceGraphic" in2="BackgroundImageFix" result="shape"/>
<feColorMatrix in="SourceAlpha" type="matrix" values="0 0 0 0 0 0 0 0 0 0 0 0 0 0 0 0 0 0 127 0" result="hardAlpha"/>
<feOffset/>
<feGaussianBlur stdDeviation="6"/>
<feComposite in2="hardAlpha" operator="arithmetic" k2="-1" k3="1"/>
<feColorMatrix type="matrix" values="0 0 0 0 0.054902 0 0 0 0 0.054902 0 0 0 0 0.054902 0 0 0 0.5 0"/>
<feBlend mode="normal" in2="shape" result="effect1_innerShadow_1_671"/>
</filter>
</defs>
</svg>
