<svg width="29" height="29" viewBox="0 0 29 29" fill="none" xmlns="http://www.w3.org/2000/svg">
<path d="M14.5 0C22.5081 0 29 6.49187 29 14.5C29 22.5081 22.5081 29 14.5 29C6.49187 29 0 22.5081 0 14.5C2.57703e-07 6.49187 6.49187 2.5772e-07 14.5 0ZM14.499 6.7666C12.4003 6.76661 12.1362 6.77595 11.3115 6.81348C10.4885 6.8512 9.9262 6.98165 9.43457 7.17285C8.9262 7.37033 8.4951 7.63467 8.06543 8.06445C7.63526 8.4943 7.37102 8.9261 7.17285 9.43457C6.98117 9.9264 6.85053 10.4887 6.81348 11.3115C6.77659 12.1361 6.7666 12.4001 6.7666 14.5C6.7666 16.6003 6.7761 16.8636 6.81348 17.6885C6.85137 18.5115 6.98181 19.0738 7.17285 19.5654C7.37048 20.0738 7.63472 20.5049 8.06445 20.9346C8.494 21.3646 8.9255 21.6296 9.43359 21.8271C9.92563 22.0184 10.4884 22.1488 11.3115 22.1865C12.1363 22.2241 12.4 22.2334 14.5 22.2334C16.5999 22.2334 16.8629 22.224 17.6875 22.1865C18.5107 22.1488 19.0734 22.0183 19.5654 21.8271C20.0739 21.6296 20.5049 21.3647 20.9346 20.9346C21.3646 20.5048 21.629 20.0737 21.8271 19.5654C22.0172 19.0736 22.1478 18.5113 22.1865 17.6885C22.2236 16.8636 22.2334 16.6003 22.2334 14.5C22.2334 12.4 22.2236 12.1363 22.1865 11.3115C22.1479 10.4883 22.0172 9.92626 21.8271 9.43457C21.629 8.92594 21.3647 8.4943 20.9346 8.06445C20.5045 7.63438 20.0744 7.37019 19.5654 7.17285C19.0724 6.98161 18.5098 6.85118 17.6865 6.81348C16.8619 6.77595 16.5991 6.7666 14.499 6.7666Z" fill="white"/>
<path d="M13.8076 8.16016C14.0134 8.15984 14.2431 8.16016 14.501 8.16016C16.5657 8.16016 16.8106 8.16802 17.626 8.20508C18.3797 8.23956 18.7889 8.36488 19.0615 8.4707C19.4224 8.61087 19.6797 8.77914 19.9502 9.0498C20.2208 9.3204 20.3888 9.5777 20.5293 9.93848C20.6351 10.2107 20.7616 10.6201 20.7959 11.374C20.833 12.1892 20.8408 12.4343 20.8408 14.498C20.8408 16.5618 20.833 16.8069 20.7959 17.6221C20.7614 18.376 20.6351 18.7853 20.5293 19.0576C20.3891 19.4185 20.2209 19.6758 19.9502 19.9463C19.6796 20.2168 19.4225 20.3843 19.0615 20.5244C18.7893 20.6307 18.3798 20.7565 17.626 20.791C16.8108 20.8281 16.5657 20.8359 14.501 20.8359C12.436 20.8359 12.1912 20.8281 11.376 20.791C10.6224 20.7562 10.2132 20.6302 9.94043 20.5244C9.57966 20.3843 9.32135 20.2168 9.05078 19.9463C8.78011 19.6756 8.61217 19.4177 8.47168 19.0566C8.36586 18.7844 8.24036 18.3747 8.20605 17.6211C8.16901 16.8062 8.16113 16.5609 8.16113 14.4961C8.16113 12.4311 8.169 12.1873 8.20605 11.3721C8.24054 10.6184 8.36585 10.2091 8.47168 9.93652C8.61185 9.57563 8.78011 9.31754 9.05078 9.04688C9.32139 8.7763 9.57961 8.60921 9.94043 8.46875C10.213 8.36244 10.6222 8.23678 11.376 8.20215C12.0894 8.16993 12.3663 8.15981 13.8076 8.1582V8.16016ZM14.501 10.5283C12.3077 10.5283 10.5293 12.3068 10.5293 14.5C10.5293 16.6932 12.3078 18.4707 14.501 18.4707C16.6942 18.4707 18.4716 16.6932 18.4717 14.5C18.4717 12.3068 16.6941 10.5284 14.501 10.5283ZM18.6289 9.44434C18.1166 9.44436 17.7012 9.85959 17.7012 10.3721C17.7013 10.8843 18.1166 11.2998 18.6289 11.2998C19.1412 11.2998 19.5565 10.8843 19.5566 10.3721C19.5566 9.85973 19.1412 9.44434 18.6289 9.44434Z" fill="white"/>
<path d="M14.5007 11.9219C15.9242 11.9219 17.0785 13.0759 17.0785 14.4997C17.0785 15.9233 15.9242 17.0775 14.5007 17.0775C13.0769 17.0775 11.9229 15.9233 11.9229 14.4997C11.9229 13.0759 13.0769 11.9219 14.5007 11.9219Z" fill="white"/>
</svg>
