<svg width="29" height="29" viewBox="0 0 29 29" fill="none" xmlns="http://www.w3.org/2000/svg">
<path d="M14.5 0C22.5081 0 29 6.49187 29 14.5C29 22.5081 22.5081 29 14.5 29C6.49187 29 0 22.5081 0 14.5C2.57703e-07 6.49187 6.49187 2.5772e-07 14.5 0ZM6.96094 21.8828H10.2471V12.0098H6.96094V21.8828ZM18.3145 11.7773C16.5699 11.7773 15.7887 12.736 15.3525 13.4082V12.0098H12.0654C12.1087 12.9344 12.0656 21.8487 12.0654 21.8828H15.3525V16.3691C15.3525 16.0741 15.3741 15.7796 15.4609 15.5684C15.6984 14.9789 16.2387 14.3682 17.1465 14.3682C18.336 14.3682 18.8115 15.2738 18.8115 16.6006V21.8828H22.0977V16.2217C22.0976 13.1892 20.4767 11.7775 18.3145 11.7773ZM8.62598 7.25C7.50197 7.25 6.76675 7.98717 6.7666 8.95508C6.7666 9.90307 7.47984 10.6621 8.58301 10.6621H8.60449C9.75002 10.6619 10.4639 9.90296 10.4639 8.95508C10.4424 7.98725 9.74983 7.25012 8.62598 7.25Z" fill="white"/>
</svg>
