<svg width="35" height="34" viewBox="0 0 35 34" fill="none" xmlns="http://www.w3.org/2000/svg">
<path opacity="0.1" d="M4.11328 3.2627C6.61479 0.80699 9.93118 0.00908121 13.9697 0.788086L14.4346 0.876953L14.3711 1.34668L13.6182 6.85938L13.5537 7.32715L13.084 7.29102C11.2011 7.14573 9.95127 7.54241 9.19434 8.34375C8.3795 9.20652 7.86069 10.3833 7.66992 11.9141C7.49028 13.3556 7.43497 14.9052 7.50195 16.5635H14.375V33.5H0.5V14.043C0.5 9.33395 1.67385 5.70966 4.10938 3.2666L4.11328 3.2627ZM23.2383 3.2627C25.7398 0.807069 29.0562 0.00903846 33.0947 0.788086L33.5596 0.876953L33.4951 1.34668L32.7422 6.85938L32.6787 7.32715L32.209 7.29102C30.3259 7.14572 29.0753 7.54231 28.3184 8.34375C27.5036 9.2065 26.9857 10.3834 26.7949 11.9141C26.6153 13.3556 26.56 14.9052 26.627 16.5635H33.5V33.5H19.625V14.043C19.625 9.33395 20.7989 5.70966 23.2344 3.2666L23.2383 3.2627Z" stroke="white"/>
</svg>
