<svg width="29" height="29" viewBox="0 0 29 29" fill="none" xmlns="http://www.w3.org/2000/svg">
<path d="M14.5 0C22.5081 0 29 6.49187 29 14.5C29 22.5081 22.5081 29 14.5 29C6.49187 29 0 22.5081 0 14.5C2.57703e-07 6.49187 6.49187 2.5772e-07 14.5 0ZM21.624 9.93848C21.8674 8.96229 21.2521 8.51998 20.6143 8.80957L6.64746 14.1953C5.69407 14.5777 5.69959 15.1097 6.47363 15.3467L10.0576 16.4648L18.3555 11.2295C18.7472 10.9919 19.1066 11.1199 18.8115 11.3818L12.0879 17.4492L11.8418 21.1455C12.2042 21.1455 12.3641 20.9799 12.5664 20.7832L14.3086 19.0898L17.9316 21.7666C18.5985 22.1345 19.08 21.944 19.2461 21.1475L21.624 9.93848Z" fill="white"/>
</svg>
