<svg width="29" height="29" viewBox="0 0 29 29" fill="none" xmlns="http://www.w3.org/2000/svg">
<path d="M14.5 0C6.49187 0 0 6.49187 0 14.5C0 22.5081 6.49187 29 14.5 29C22.5081 29 29 22.5081 29 14.5C29 6.49187 22.5081 0 14.5 0ZM21.8418 13.1623C20.302 13.1623 18.8039 12.6626 17.6504 11.817L17.6412 17.5661C17.6402 18.6313 17.3144 19.671 16.7072 20.5463C16.1 21.4215 15.2404 22.0908 14.2429 22.4648C13.2454 22.8388 12.1577 22.8997 11.1247 22.6394C10.0917 22.3791 9.16269 21.81 8.46159 21.0079C7.76049 20.2059 7.32066 19.2091 7.20079 18.1506C7.08092 17.0921 7.28672 16.0222 7.79071 15.0837C8.29471 14.1452 9.07293 13.3828 10.0215 12.8981C10.9701 12.4133 12.044 12.2295 13.0998 12.3709V15.1942C12.6018 15.047 12.07 15.0605 11.58 15.2325C11.09 15.4046 10.6666 15.7265 10.3699 16.1527C10.0732 16.579 9.91815 17.0878 9.92684 17.607C9.93554 18.1263 10.1075 18.6296 10.4183 19.0457C10.7292 19.4617 11.1631 19.7693 11.6586 19.9249C12.1541 20.0804 12.686 20.076 13.1789 19.9123C13.6717 19.7485 14.1005 19.4338 14.4044 19.0127C14.7083 18.5915 14.8719 18.0854 14.872 17.5661V6.19269H17.7763C17.7763 6.72655 17.8814 7.25519 18.0857 7.74841C18.29 8.24164 18.5895 8.68979 18.967 9.06729C19.3445 9.44478 19.7926 9.74423 20.2859 9.94852C20.7791 10.1528 21.3077 10.258 21.8416 10.258L21.8418 13.1623Z" fill="white"/>
</svg>
