<svg width="29" height="29" viewBox="0 0 29 29" fill="none" xmlns="http://www.w3.org/2000/svg">
<path d="M14.5 0C22.5081 0 29 6.49187 29 14.5C29 22.5081 22.5081 29 14.5 29C6.49187 29 0 22.5081 0 14.5C2.57703e-07 6.49187 6.49187 2.5772e-07 14.5 0ZM14.5 9.18359C14.4991 9.18359 9.66306 9.18377 8.45703 9.51562C7.79178 9.69831 7.26775 10.2359 7.08984 10.9189C6.7692 12.1479 6.76662 14.702 6.7666 14.7412C6.7666 14.7412 6.76671 17.3259 7.08984 18.5645C7.26777 19.2475 7.7918 19.785 8.45703 19.9678C9.66306 20.2995 14.4991 20.2998 14.5 20.2998C14.5 20.2998 19.3369 20.2996 20.543 19.9678C21.2082 19.785 21.7322 19.2475 21.9102 18.5645C22.2334 17.3259 22.2334 14.7412 22.2334 14.7412C22.2334 14.702 22.2309 12.1479 21.9102 10.9189C21.7323 10.2359 21.2082 9.69833 20.543 9.51562C19.3369 9.18374 14.5 9.18359 14.5 9.18359Z" fill="white"/>
<path d="M13.0498 17.3997V12.5664L16.9165 14.9832L13.0498 17.3997Z" fill="white"/>
</svg>
